<svg width="200" height="24" viewBox="0 0 632.325 77.98" xmlns="http://www.w3.org/2000/svg"><g id="svgGroup" stroke-linecap="round" fill-rule="evenodd" font-size="9pt" stroke="#fff" stroke-width="0.25mm" fill="#000" style="stroke:#fff;stroke-width:0.25mm;fill:#fff"><path d="M 39.746 48.73 L 40.137 48.73 Q 40.82 46.094 41.626 43.53 A 103.44 103.44 0 0 1 42.462 40.993 Q 42.916 39.668 43.449 38.212 A 169.753 169.753 0 0 1 43.604 37.793 A 181.176 181.176 0 0 1 44.585 35.151 Q 45.099 33.799 45.69 32.294 A 321.936 321.936 0 0 1 46.094 31.274 Q 47.559 27.588 49.194 23.779 A 210.519 210.519 0 0 1 51.21 19.228 A 172.009 172.009 0 0 1 52.393 16.699 Q 53.442 14.501 54.36 12.898 A 29.646 29.646 0 0 1 55.225 11.475 A 15.23 15.23 0 0 1 56.525 9.747 Q 57.274 8.895 58.077 8.288 A 8.445 8.445 0 0 1 58.618 7.91 A 6.218 6.218 0 0 1 60.158 7.219 Q 61.73 6.738 64.014 6.738 L 70.41 6.738 Q 72.502 6.738 74.047 7.252 A 7.507 7.507 0 0 1 74.683 7.495 Q 76.416 8.252 77.148 11.084 Q 77.595 12.83 78.008 15.926 A 104.516 104.516 0 0 1 78.174 17.236 A 84.019 84.019 0 0 1 78.409 19.458 Q 78.642 21.951 78.836 25.274 A 299.237 299.237 0 0 1 79.004 28.467 A 372.196 372.196 0 0 1 79.166 32.31 Q 79.395 38.458 79.541 46.899 Q 79.736 58.121 79.736 74.61 A 2958.453 2958.453 0 0 1 79.736 74.707 A 2.166 2.166 0 0 1 79.603 75.478 A 1.946 1.946 0 0 1 79.15 76.172 A 1.927 1.927 0 0 1 77.76 76.758 A 2.34 2.34 0 0 1 77.734 76.758 L 66.602 76.758 A 1.927 1.927 0 0 1 65.204 76.19 A 2.322 2.322 0 0 1 65.186 76.172 A 1.977 1.977 0 0 1 64.615 74.947 A 2.698 2.698 0 0 1 64.6 74.658 L 64.6 52.783 A 2898.343 2898.343 0 0 0 64.597 48.483 Q 64.587 42.322 64.551 37.891 Q 64.502 31.982 64.429 28.491 A 191.999 191.999 0 0 0 64.388 26.845 Q 64.335 25.068 64.258 23.814 A 46.176 46.176 0 0 0 64.209 23.096 L 63.916 23.096 A 443.968 443.968 0 0 0 61.243 29.388 A 591.404 591.404 0 0 0 58.398 36.353 A 441.65 441.65 0 0 0 52.686 51.392 A 290.082 290.082 0 0 0 48.264 64.655 A 262.362 262.362 0 0 0 47.705 66.504 Q 47.138 68.466 46.318 69.357 A 2.945 2.945 0 0 1 46.118 69.556 Q 45.166 70.41 41.797 70.41 L 36.182 70.41 A 17.738 17.738 0 0 1 34.937 70.37 Q 33.088 70.239 32.357 69.684 A 1.653 1.653 0 0 1 32.349 69.678 A 2.664 2.664 0 0 1 31.807 69.092 Q 31.194 68.221 30.713 66.504 Q 29.102 60.938 27.148 54.736 A 445.274 445.274 0 0 0 23.12 42.554 Q 21.045 36.572 19.116 31.519 A 228.341 228.341 0 0 0 17.728 27.965 Q 17.174 26.583 16.66 25.366 A 107.776 107.776 0 0 0 15.674 23.096 L 15.381 23.096 A 316.014 316.014 0 0 0 15.102 27.767 Q 14.88 31.952 14.697 37.109 Q 14.404 45.361 14.233 55.029 Q 14.063 64.697 14.014 74.756 A 2.151 2.151 0 0 1 13.902 75.464 A 1.835 1.835 0 0 1 13.428 76.196 Q 12.842 76.758 12.012 76.758 L 2.002 76.758 A 1.927 1.927 0 0 1 0.604 76.19 A 2.322 2.322 0 0 1 0.586 76.172 A 1.977 1.977 0 0 1 0.015 74.947 A 2.698 2.698 0 0 1 0 74.658 Q 0.049 48.633 1.05 33.105 Q 1.913 19.71 2.904 13.946 A 34.847 34.847 0 0 1 3.223 12.305 Q 4.004 8.838 5.981 7.788 A 8.974 8.974 0 0 1 9.114 6.821 A 11.24 11.24 0 0 1 10.498 6.738 L 18.408 6.738 Q 20.861 6.738 22.112 7.532 A 3.166 3.166 0 0 1 22.339 7.69 Q 23.357 8.469 24.75 10.438 A 35.822 35.822 0 0 1 25.391 11.377 Q 26.288 12.723 27.475 15.193 A 74.985 74.985 0 0 1 27.954 16.211 A 156.166 156.166 0 0 1 29.474 19.611 A 204.342 204.342 0 0 1 31.055 23.364 Q 32.666 27.295 34.106 31.128 A 223.986 223.986 0 0 1 35.115 33.862 Q 35.505 34.942 35.845 35.925 A 119.794 119.794 0 0 1 36.475 37.793 A 204.057 204.057 0 0 1 37.857 42.018 A 183.408 183.408 0 0 1 38.281 43.384 A 90.926 90.926 0 0 1 39.746 48.73 Z M 521.582 45.654 L 521.582 74.17 A 5.508 5.508 0 0 1 521.541 74.865 Q 521.446 75.616 521.123 76.032 A 1.343 1.343 0 0 1 520.972 76.196 Q 520.415 76.709 519.147 76.754 A 7.074 7.074 0 0 1 518.896 76.758 L 508.838 76.758 A 6.023 6.023 0 0 1 508.12 76.718 Q 507.211 76.609 506.763 76.196 A 1.556 1.556 0 0 1 506.391 75.648 Q 506.185 75.162 506.157 74.414 A 6.493 6.493 0 0 1 506.152 74.17 L 506.152 48.193 A 20.007 20.007 0 0 0 505.975 45.427 Q 505.521 42.184 503.906 40.43 A 7.415 7.415 0 0 0 499.468 38.114 A 10.641 10.641 0 0 0 497.803 37.988 A 14.433 14.433 0 0 0 495.566 38.15 Q 494.378 38.337 493.421 38.739 A 6.482 6.482 0 0 0 491.87 39.648 A 10.959 10.959 0 0 0 488.672 43.848 L 488.672 74.17 A 5.508 5.508 0 0 1 488.631 74.865 Q 488.535 75.616 488.213 76.032 A 1.343 1.343 0 0 1 488.062 76.196 Q 487.505 76.709 486.236 76.754 A 7.074 7.074 0 0 1 485.986 76.758 L 475.928 76.758 A 6.023 6.023 0 0 1 475.21 76.718 Q 474.301 76.609 473.853 76.196 A 1.556 1.556 0 0 1 473.481 75.648 Q 473.275 75.162 473.247 74.414 A 6.493 6.493 0 0 1 473.242 74.17 L 473.242 33.252 A 4.535 4.535 0 0 1 473.29 32.572 Q 473.344 32.216 473.459 31.928 A 2.012 2.012 0 0 1 473.73 31.445 A 22.246 22.246 0 0 1 475.015 29.892 A 28.593 28.593 0 0 1 476.196 28.662 A 30.622 30.622 0 0 1 477.583 27.386 Q 478.312 26.752 479.159 26.084 A 54.005 54.005 0 0 1 479.736 25.635 A 2.906 2.906 0 0 1 480.162 25.359 Q 480.414 25.228 480.658 25.178 A 1.479 1.479 0 0 1 480.957 25.146 Q 481.341 25.146 481.799 25.396 A 3.671 3.671 0 0 1 482.178 25.635 Q 484.092 27.139 485.496 28.516 A 28.32 28.32 0 0 1 485.693 28.711 A 25.079 25.079 0 0 1 487.848 31.156 A 22.537 22.537 0 0 1 488.281 31.738 L 488.525 31.738 A 11.099 11.099 0 0 1 489.125 31.031 Q 489.874 30.214 491.016 29.224 A 10.762 10.762 0 0 1 492.518 28.147 Q 493.849 27.345 495.679 26.66 Q 498.682 25.537 503.369 25.537 Q 507.959 25.537 512.109 27.393 A 14.506 14.506 0 0 1 517.639 31.782 A 18.667 18.667 0 0 1 518.921 33.643 A 16.261 16.261 0 0 1 520.644 37.745 Q 521.172 39.65 521.402 41.914 A 36.928 36.928 0 0 1 521.582 45.654 Z M 312.793 25.635 L 312.793 36.768 L 330.127 36.768 Q 331.231 36.768 331.815 37.114 A 1.579 1.579 0 0 1 331.885 37.158 A 24.54 24.54 0 0 1 333.344 38.255 A 31.725 31.725 0 0 1 334.521 39.258 A 29.942 29.942 0 0 1 335.914 40.589 Q 336.64 41.326 337.402 42.188 A 4.245 4.245 0 0 1 337.616 42.49 Q 337.891 42.92 337.891 43.213 A 0.965 0.965 0 0 1 337.816 43.571 Q 337.707 43.844 337.439 44.149 A 3.453 3.453 0 0 1 337.402 44.189 A 41.88 41.88 0 0 1 335.97 45.73 Q 335.226 46.49 334.521 47.119 A 31.229 31.229 0 0 1 333.179 48.254 A 24.142 24.142 0 0 1 331.885 49.219 Q 331.201 49.609 330.127 49.609 L 312.793 49.609 L 312.793 74.17 A 5.508 5.508 0 0 1 312.752 74.865 Q 312.656 75.616 312.334 76.032 A 1.343 1.343 0 0 1 312.183 76.196 Q 311.626 76.709 310.357 76.754 A 7.074 7.074 0 0 1 310.107 76.758 L 299.707 76.758 A 6.023 6.023 0 0 1 298.989 76.718 Q 298.08 76.609 297.632 76.196 A 1.556 1.556 0 0 1 297.26 75.648 Q 297.054 75.162 297.026 74.414 A 6.493 6.493 0 0 1 297.021 74.17 L 297.021 19.824 A 43.193 43.193 0 0 1 297.11 16.97 Q 297.297 14.147 297.884 12.217 A 12.429 12.429 0 0 1 297.925 12.085 A 6.944 6.944 0 0 1 299.228 9.663 A 6.531 6.531 0 0 1 301.44 7.983 A 10.31 10.31 0 0 1 303.415 7.3 Q 305.381 6.817 308.153 6.749 A 37.928 37.928 0 0 1 309.082 6.738 L 332.129 6.738 Q 333.233 6.738 333.817 7.085 A 1.579 1.579 0 0 1 333.887 7.129 A 24.54 24.54 0 0 1 335.346 8.226 A 31.725 31.725 0 0 1 336.523 9.229 A 29.942 29.942 0 0 1 337.916 10.56 Q 338.642 11.297 339.404 12.158 A 4.245 4.245 0 0 1 339.618 12.46 Q 339.893 12.891 339.893 13.184 A 0.965 0.965 0 0 1 339.818 13.542 Q 339.709 13.815 339.441 14.119 A 3.453 3.453 0 0 1 339.404 14.16 A 41.88 41.88 0 0 1 337.972 15.701 Q 337.228 16.46 336.523 17.09 A 31.229 31.229 0 0 1 335.181 18.225 A 24.142 24.142 0 0 1 333.887 19.189 Q 333.203 19.58 332.129 19.58 L 318.359 19.58 A 11.898 11.898 0 0 0 316.876 19.666 Q 315.271 19.868 314.385 20.55 A 2.808 2.808 0 0 0 313.965 20.947 A 3.887 3.887 0 0 0 313.299 22.114 Q 312.793 23.453 312.793 25.635 Z M 567.676 26.318 L 567.676 8.105 A 4.535 4.535 0 0 1 567.723 7.425 Q 567.778 7.07 567.893 6.781 A 2.012 2.012 0 0 1 568.164 6.299 A 23.423 23.423 0 0 1 569.97 4.223 Q 571.698 2.441 574.17 0.488 A 3.62 3.62 0 0 1 574.573 0.236 Q 574.781 0.125 574.974 0.067 A 1.428 1.428 0 0 1 575.391 0 A 1.716 1.716 0 0 1 576.222 0.22 A 2.419 2.419 0 0 1 576.611 0.488 A 48.286 48.286 0 0 1 578.322 1.861 Q 579.341 2.719 580.151 3.516 A 27.77 27.77 0 0 1 581.622 5.071 A 21.597 21.597 0 0 1 582.617 6.299 Q 582.998 6.794 583.082 7.616 A 4.834 4.834 0 0 1 583.105 8.105 L 583.105 74.512 Q 583.105 75.439 582.471 76.099 A 2.123 2.123 0 0 1 580.95 76.756 A 2.824 2.824 0 0 1 580.859 76.758 L 573.584 76.758 A 4.748 4.748 0 0 1 572.856 76.705 A 3.574 3.574 0 0 1 572.192 76.538 A 2.311 2.311 0 0 1 571.569 76.191 Q 571.337 76.013 571.117 75.766 A 4.133 4.133 0 0 1 571.045 75.684 L 568.018 71.777 L 567.676 71.777 A 6.912 6.912 0 0 1 567.211 72.402 Q 566.677 73.049 565.815 73.863 A 30.111 30.111 0 0 1 565.405 74.243 A 9.712 9.712 0 0 1 563.972 75.309 Q 562.607 76.154 560.669 76.855 Q 558.499 77.641 555.338 77.877 A 39.01 39.01 0 0 1 552.441 77.979 A 21.961 21.961 0 0 1 546.996 77.333 A 17.038 17.038 0 0 1 541.382 74.78 A 19.387 19.387 0 0 1 535.242 67.645 A 23.919 23.919 0 0 1 534.448 65.942 A 29.667 29.667 0 0 1 532.502 58.842 A 39.748 39.748 0 0 1 532.08 52.93 A 45.1 45.1 0 0 1 532.487 46.685 Q 533.263 41.14 535.522 37.183 Q 538.965 31.152 545.239 28.32 Q 551.33 25.571 559.56 25.491 A 50.965 50.965 0 0 1 560.059 25.488 Q 562.167 25.488 563.757 25.64 A 21.08 21.08 0 0 1 564.917 25.781 A 52.376 52.376 0 0 1 565.813 25.925 Q 566.646 26.066 567.201 26.195 A 8.672 8.672 0 0 1 567.676 26.318 Z M 592.578 70.85 L 597.559 63.477 Q 598.633 61.914 600 63.281 A 12.756 12.756 0 0 0 601.316 64.38 Q 602.398 65.174 603.833 65.942 Q 605.938 67.07 608.952 67.215 A 18.932 18.932 0 0 0 609.863 67.236 A 15.543 15.543 0 0 0 612.075 67.088 Q 613.232 66.922 614.193 66.568 A 7.903 7.903 0 0 0 615.161 66.138 A 4.608 4.608 0 0 0 616.254 65.355 A 3.259 3.259 0 0 0 617.236 62.939 A 3.773 3.773 0 0 0 617.074 61.809 A 3.046 3.046 0 0 0 616.309 60.547 A 5.031 5.031 0 0 0 615.633 59.992 Q 614.896 59.477 613.736 58.947 A 22.773 22.773 0 0 0 613.037 58.643 Q 611.243 57.895 608.361 56.832 A 274.998 274.998 0 0 0 606.494 56.152 A 37.396 37.396 0 0 1 602.589 54.499 Q 600.684 53.552 599.191 52.478 A 16.756 16.756 0 0 1 597.119 50.732 Q 593.945 47.559 593.945 41.455 A 16.58 16.58 0 0 1 594.417 37.393 A 11.956 11.956 0 0 1 597.046 32.324 Q 600.146 28.809 605.005 27.173 Q 609.863 25.537 615.137 25.537 Q 621.826 25.537 624.536 26.782 A 47.994 47.994 0 0 1 625.629 27.3 Q 627.23 28.085 627.886 28.595 A 3.133 3.133 0 0 1 628.027 28.711 Q 628.76 29.346 629.053 30.176 Q 629.688 32.08 630.029 35.205 Q 630.172 36.528 629.609 37.196 A 1.657 1.657 0 0 1 629.102 37.598 A 4.372 4.372 0 0 1 628.718 37.794 Q 628.29 37.989 627.654 38.2 A 20.07 20.07 0 0 1 627.246 38.33 Q 625.977 38.721 624.707 39.014 Q 623.438 39.307 622.803 39.307 A 0.716 0.716 0 0 1 622.595 39.274 Q 622.51 39.248 622.421 39.202 A 1.285 1.285 0 0 1 622.388 39.185 Q 622.184 39.072 621.71 38.645 A 17.001 17.001 0 0 1 621.631 38.574 Q 621.103 38.046 619.951 37.383 A 20.835 20.835 0 0 0 619.458 37.109 Q 618.356 36.514 616.663 36.346 A 14.452 14.452 0 0 0 615.234 36.279 Q 612.598 36.279 610.815 37.134 A 3.124 3.124 0 0 0 609.664 38.039 Q 609.033 38.859 609.033 40.137 A 3.769 3.769 0 0 0 609.468 41.963 Q 609.878 42.72 610.676 43.276 A 5.527 5.527 0 0 0 611.304 43.652 A 26.079 26.079 0 0 0 612.624 44.281 Q 614.14 44.958 616.406 45.808 A 144.854 144.854 0 0 0 618.799 46.68 Q 622.834 48.073 625.854 49.726 A 32.885 32.885 0 0 1 625.952 49.78 A 13.252 13.252 0 0 1 629.081 52.138 A 11.648 11.648 0 0 1 630.664 54.175 A 10.136 10.136 0 0 1 631.784 56.851 Q 632.324 58.857 632.324 61.475 A 17.772 17.772 0 0 1 631.868 65.616 A 12.357 12.357 0 0 1 629.077 71.069 A 18.121 18.121 0 0 1 622.162 75.843 A 21.982 21.982 0 0 1 620.776 76.343 Q 615.723 77.979 610.205 77.979 A 51.421 51.421 0 0 1 606.68 77.865 Q 605.028 77.751 603.608 77.523 A 23.306 23.306 0 0 1 601.538 77.1 Q 599.061 76.467 597.291 75.645 A 13.657 13.657 0 0 1 596.021 74.976 A 34.854 34.854 0 0 1 594.701 74.146 Q 593.542 73.378 592.773 72.705 A 1.927 1.927 0 0 1 592.502 72.392 Q 592.048 71.726 592.518 70.944 A 2.406 2.406 0 0 1 592.578 70.85 Z M 273.389 56.445 L 252.441 56.445 A 13.302 13.302 0 0 0 253.097 59.751 A 9.349 9.349 0 0 0 256.128 64.111 Q 259.424 66.748 265.088 66.748 Q 268.228 66.748 270.498 66.092 A 10.767 10.767 0 0 0 272.29 65.405 A 65.686 65.686 0 0 0 273.543 64.769 Q 275.269 63.867 276.074 63.281 Q 277.002 62.598 278.174 62.646 A 6.649 6.649 0 0 1 278.759 62.675 Q 279.395 62.732 280.274 62.9 A 28.856 28.856 0 0 1 280.835 63.013 Q 282.568 63.379 284.277 64.355 A 2.945 2.945 0 0 1 284.867 64.751 A 1.746 1.746 0 0 1 285.498 66.113 A 4.713 4.713 0 0 1 285.477 66.538 Q 285.438 66.965 285.328 67.548 A 19.601 19.601 0 0 1 285.254 67.92 Q 285.142 68.443 284.915 69.324 A 91.348 91.348 0 0 1 284.766 69.897 A 13.974 13.974 0 0 1 284.081 71.887 A 12.606 12.606 0 0 1 283.887 72.314 Q 283.628 72.789 283.102 73.226 A 4.926 4.926 0 0 1 282.959 73.34 A 12.529 12.529 0 0 1 282.396 73.709 Q 281.742 74.116 280.773 74.638 A 62.222 62.222 0 0 1 279.81 75.146 Q 278.35 75.901 276.173 76.534 A 39.834 39.834 0 0 1 273.877 77.124 A 29.879 29.879 0 0 1 270.793 77.643 Q 267.968 77.979 264.355 77.979 Q 256.394 77.979 250.432 75.501 A 27.082 27.082 0 0 1 250 75.317 A 20.165 20.165 0 0 1 240.527 67.041 A 21.888 21.888 0 0 1 238.109 61.058 Q 237.158 57.26 237.158 52.539 Q 237.158 39.209 243.994 32.373 A 22.92 22.92 0 0 1 256.735 25.971 A 32.544 32.544 0 0 1 262.158 25.537 Q 268.71 25.537 273.47 27.619 A 19.989 19.989 0 0 1 274.634 28.174 A 19.388 19.388 0 0 1 280.002 32.191 A 17.754 17.754 0 0 1 282.397 35.449 A 20.115 20.115 0 0 1 284.931 43.502 A 24.886 24.886 0 0 1 285.059 46.045 A 17.777 17.777 0 0 1 284.848 48.884 Q 284.267 52.465 282.08 54.15 A 9.729 9.729 0 0 1 279.113 55.668 Q 277.763 56.105 276.121 56.297 A 23.656 23.656 0 0 1 273.389 56.445 Z M 450.83 56.445 L 429.883 56.445 A 13.302 13.302 0 0 0 430.539 59.751 A 9.349 9.349 0 0 0 433.569 64.111 Q 436.865 66.748 442.529 66.748 Q 445.67 66.748 447.939 66.092 A 10.767 10.767 0 0 0 449.731 65.405 A 65.686 65.686 0 0 0 450.984 64.769 Q 452.71 63.867 453.516 63.281 Q 454.443 62.598 455.615 62.646 A 6.649 6.649 0 0 1 456.201 62.675 Q 456.836 62.732 457.715 62.9 A 28.856 28.856 0 0 1 458.276 63.013 Q 460.01 63.379 461.719 64.355 A 2.945 2.945 0 0 1 462.309 64.751 A 1.746 1.746 0 0 1 462.939 66.113 A 4.713 4.713 0 0 1 462.918 66.538 Q 462.879 66.965 462.769 67.548 A 19.601 19.601 0 0 1 462.695 67.92 Q 462.583 68.443 462.357 69.324 A 91.348 91.348 0 0 1 462.207 69.897 A 13.974 13.974 0 0 1 461.523 71.887 A 12.606 12.606 0 0 1 461.328 72.314 Q 461.069 72.789 460.543 73.226 A 4.926 4.926 0 0 1 460.4 73.34 A 12.529 12.529 0 0 1 459.837 73.709 Q 459.183 74.116 458.215 74.638 A 62.222 62.222 0 0 1 457.251 75.146 Q 455.791 75.901 453.615 76.534 A 39.834 39.834 0 0 1 451.318 77.124 A 29.879 29.879 0 0 1 448.235 77.643 Q 445.409 77.979 441.797 77.979 Q 433.835 77.979 427.873 75.501 A 27.082 27.082 0 0 1 427.441 75.317 A 20.165 20.165 0 0 1 417.969 67.041 A 21.888 21.888 0 0 1 415.55 61.058 Q 414.6 57.26 414.6 52.539 Q 414.6 39.209 421.436 32.373 A 22.92 22.92 0 0 1 434.176 25.971 A 32.544 32.544 0 0 1 439.6 25.537 Q 446.152 25.537 450.911 27.619 A 19.989 19.989 0 0 1 452.075 28.174 A 19.388 19.388 0 0 1 457.444 32.191 A 17.754 17.754 0 0 1 459.839 35.449 A 20.115 20.115 0 0 1 462.373 43.502 A 24.886 24.886 0 0 1 462.5 46.045 A 17.777 17.777 0 0 1 462.29 48.884 Q 461.709 52.465 459.521 54.15 A 9.729 9.729 0 0 1 456.554 55.668 Q 455.205 56.105 453.562 56.297 A 23.656 23.656 0 0 1 450.83 56.445 Z M 167.627 33.74 L 167.627 33.496 Q 167.627 36.67 168.774 41.821 A 89.103 89.103 0 0 0 170.543 48.48 A 109.44 109.44 0 0 0 171.924 52.686 A 72.416 72.416 0 0 0 174.977 60.102 A 62.185 62.185 0 0 0 176.563 63.184 L 176.807 63.184 A 53.941 53.941 0 0 0 180.278 56.412 A 60.178 60.178 0 0 0 180.713 55.371 Q 182.422 51.172 183.594 46.973 A 92.326 92.326 0 0 0 184.625 42.944 A 68.373 68.373 0 0 0 185.376 39.258 A 55.984 55.984 0 0 0 185.698 37.189 Q 185.977 35.124 185.986 33.643 A 16.138 16.138 0 0 0 185.986 33.545 L 185.986 33.74 A 4.535 4.535 0 0 1 186.034 33.06 Q 186.088 32.704 186.204 32.416 A 2.012 2.012 0 0 1 186.475 31.934 A 26.474 26.474 0 0 1 187.862 30.38 A 33.569 33.569 0 0 1 189.111 29.15 A 35.485 35.485 0 0 1 190.557 27.874 Q 191.313 27.241 192.182 26.572 A 61.118 61.118 0 0 1 192.773 26.123 A 3.35 3.35 0 0 1 193.212 25.855 Q 193.649 25.635 194.043 25.635 A 1.878 1.878 0 0 1 195.108 25.97 A 2.462 2.462 0 0 1 195.313 26.123 Q 197.201 27.508 198.584 28.748 A 28.235 28.235 0 0 1 199.023 29.15 Q 200.537 30.566 201.611 31.934 Q 202.1 32.568 202.1 33.643 L 202.1 33.74 L 202.1 33.545 L 202.1 33.643 Q 202.051 36.279 200.732 41.04 Q 199.415 45.796 197.197 51.478 A 230.403 230.403 0 0 1 197.192 51.489 A 136.592 136.592 0 0 1 192.236 62.671 Q 189.546 68.076 186.761 72.086 A 54.265 54.265 0 0 1 186.67 72.217 A 26.927 26.927 0 0 1 185.685 73.566 Q 184.555 75.011 183.594 75.732 A 3.917 3.917 0 0 1 182.544 76.273 Q 181.174 76.758 178.857 76.758 L 173.682 76.758 A 19.904 19.904 0 0 1 172.06 76.697 Q 170.494 76.568 169.531 76.169 A 3.443 3.443 0 0 1 168.823 75.781 A 6.87 6.87 0 0 1 167.964 75.025 Q 167.13 74.172 166.19 72.778 A 28.805 28.805 0 0 1 165.82 72.217 A 78.293 78.293 0 0 1 163.153 67.645 A 105.394 105.394 0 0 1 160.522 62.427 A 146.617 146.617 0 0 1 155.786 51.196 Q 153.696 45.598 152.433 40.946 A 83.827 83.827 0 0 1 152.393 40.796 Q 151.337 36.878 151.159 34.462 A 12.533 12.533 0 0 1 151.123 33.545 A 2.917 2.917 0 0 1 151.212 32.808 A 2.188 2.188 0 0 1 151.66 31.934 Q 153.358 29.83 156.144 27.587 A 50.515 50.515 0 0 1 158.057 26.123 A 3.86 3.86 0 0 1 158.5 25.866 Q 158.972 25.635 159.375 25.635 A 1.865 1.865 0 0 1 160.043 25.765 Q 160.362 25.887 160.693 26.123 Q 162.939 27.734 164.478 29.15 A 27.427 27.427 0 0 1 165.9 30.554 A 20.789 20.789 0 0 1 167.09 31.934 Q 167.627 32.568 167.627 33.74 Z M 98.145 71.436 A 22.603 22.603 0 0 0 99.954 72.921 Q 106.809 77.979 117.627 77.979 A 45.728 45.728 0 0 0 118.549 77.969 Q 122.973 77.88 126.711 76.928 A 23.961 23.961 0 0 0 137.549 71.094 Q 142.432 66.441 144.016 58.934 A 38.106 38.106 0 0 0 144.775 51.074 Q 144.775 46.141 143.667 42.147 A 20.679 20.679 0 0 0 137.549 32.007 A 24.578 24.578 0 0 0 126.486 26.409 A 36.199 36.199 0 0 0 118.311 25.537 Q 113.447 25.537 109.347 26.539 A 25.314 25.314 0 0 0 98.413 32.104 Q 90.967 38.672 90.967 51.953 A 43.552 43.552 0 0 0 91.029 54.308 Q 91.251 58.414 92.268 61.812 A 20.759 20.759 0 0 0 98.145 71.436 Z M 364.111 32.422 L 364.111 36.035 L 364.307 36.035 A 19.751 19.751 0 0 1 366.746 31.242 Q 370.452 26.047 377.061 25.884 A 17.485 17.485 0 0 1 377.49 25.879 A 20.147 20.147 0 0 1 378.278 25.893 Q 378.979 25.921 379.492 26.001 A 19.314 19.314 0 0 1 379.842 26.059 Q 380.344 26.147 380.566 26.221 Q 381.299 26.465 381.299 27.344 L 381.299 39.111 Q 381.299 40.581 379.643 39.98 A 4.762 4.762 0 0 1 379.541 39.941 A 6.433 6.433 0 0 0 379.131 39.788 Q 378.616 39.614 377.856 39.429 Q 376.758 39.16 374.805 39.16 A 10.973 10.973 0 0 0 371.243 39.711 A 9.009 9.009 0 0 0 366.943 42.847 A 12.72 12.72 0 0 0 364.83 47.159 Q 364.336 48.894 364.182 50.948 A 25.782 25.782 0 0 0 364.111 52.881 L 364.111 74.17 A 5.508 5.508 0 0 1 364.071 74.865 Q 363.975 75.616 363.652 76.032 A 1.343 1.343 0 0 1 363.501 76.196 Q 362.944 76.709 361.676 76.754 A 7.074 7.074 0 0 1 361.426 76.758 L 351.367 76.758 A 6.023 6.023 0 0 1 350.649 76.718 Q 349.74 76.609 349.292 76.196 A 1.556 1.556 0 0 1 348.92 75.648 Q 348.714 75.162 348.686 74.414 A 6.493 6.493 0 0 1 348.682 74.17 L 348.682 33.252 A 4.535 4.535 0 0 1 348.729 32.572 Q 348.783 32.216 348.899 31.928 A 2.012 2.012 0 0 1 349.17 31.445 A 22.246 22.246 0 0 1 350.455 29.892 A 28.593 28.593 0 0 1 351.636 28.662 A 30.622 30.622 0 0 1 353.022 27.386 Q 353.752 26.752 354.598 26.084 A 54.005 54.005 0 0 1 355.176 25.635 A 2.592 2.592 0 0 1 355.542 25.403 A 1.924 1.924 0 0 1 355.957 25.244 A 3.855 3.855 0 0 1 356.236 25.185 Q 356.381 25.16 356.51 25.151 A 1.957 1.957 0 0 1 356.641 25.146 A 2.073 2.073 0 0 1 357.474 25.328 A 2.942 2.942 0 0 1 358.008 25.635 A 55.322 55.322 0 0 1 360.094 27.347 Q 362.514 29.44 363.672 31.055 A 2.198 2.198 0 0 1 364.11 32.337 A 2.722 2.722 0 0 1 364.111 32.422 Z M 226.563 29.346 L 226.563 74.17 A 5.508 5.508 0 0 1 226.522 74.865 Q 226.426 75.616 226.103 76.032 A 1.343 1.343 0 0 1 225.952 76.196 Q 225.395 76.709 224.127 76.754 A 7.074 7.074 0 0 1 223.877 76.758 L 213.818 76.758 A 6.023 6.023 0 0 1 213.1 76.718 Q 212.191 76.609 211.743 76.196 A 1.556 1.556 0 0 1 211.371 75.648 Q 211.165 75.162 211.137 74.414 A 6.493 6.493 0 0 1 211.133 74.17 L 211.133 29.346 A 5.508 5.508 0 0 1 211.173 28.65 Q 211.269 27.899 211.592 27.484 A 1.343 1.343 0 0 1 211.743 27.319 Q 212.3 26.807 213.568 26.762 A 7.074 7.074 0 0 1 213.818 26.758 L 223.877 26.758 A 6.023 6.023 0 0 1 224.595 26.797 Q 225.504 26.907 225.952 27.319 A 1.556 1.556 0 0 1 226.324 27.868 Q 226.53 28.353 226.558 29.102 A 6.493 6.493 0 0 1 226.563 29.346 Z M 404.004 29.346 L 404.004 74.17 A 5.508 5.508 0 0 1 403.963 74.865 Q 403.867 75.616 403.545 76.032 A 1.343 1.343 0 0 1 403.394 76.196 Q 402.837 76.709 401.568 76.754 A 7.074 7.074 0 0 1 401.318 76.758 L 391.26 76.758 A 6.023 6.023 0 0 1 390.542 76.718 Q 389.633 76.609 389.185 76.196 A 1.556 1.556 0 0 1 388.813 75.648 Q 388.607 75.162 388.579 74.414 A 6.493 6.493 0 0 1 388.574 74.17 L 388.574 29.346 A 5.508 5.508 0 0 1 388.615 28.65 Q 388.711 27.899 389.034 27.484 A 1.343 1.343 0 0 1 389.185 27.319 Q 389.741 26.807 391.01 26.762 A 7.074 7.074 0 0 1 391.26 26.758 L 401.318 26.758 A 6.023 6.023 0 0 1 402.036 26.797 Q 402.945 26.907 403.394 27.319 A 1.556 1.556 0 0 1 403.765 27.868 Q 403.971 28.353 403.999 29.102 A 6.493 6.493 0 0 1 404.004 29.346 Z M 118.115 66.162 A 13.69 13.69 0 0 0 121.354 65.803 A 8.765 8.765 0 0 0 126.221 62.817 A 9.509 9.509 0 0 0 127.721 60.11 Q 128.732 57.409 128.915 53.265 A 43.116 43.116 0 0 0 128.955 51.367 A 34.356 34.356 0 0 0 128.783 47.795 Q 128.38 43.962 127.04 41.681 A 7.709 7.709 0 0 0 126.196 40.503 Q 123.606 37.546 118.669 37.365 A 17.838 17.838 0 0 0 118.018 37.354 A 12.931 12.931 0 0 0 114.429 37.826 A 9.625 9.625 0 0 0 109.79 40.747 Q 106.916 43.995 106.793 51.114 A 37.287 37.287 0 0 0 106.787 51.758 A 35.268 35.268 0 0 0 106.966 55.441 Q 107.501 60.522 109.644 62.939 A 9.098 9.098 0 0 0 114.079 65.651 Q 115.541 66.066 117.292 66.144 A 18.525 18.525 0 0 0 118.115 66.162 Z M 567.676 59.619 L 567.676 39.16 A 6.517 6.517 0 0 0 567.221 38.904 Q 566.443 38.501 565.088 37.988 Q 563.281 37.305 560.01 37.305 A 14.671 14.671 0 0 0 556.362 37.731 A 9.645 9.645 0 0 0 550.928 41.26 A 13.774 13.774 0 0 0 548.622 46.024 Q 547.9 48.638 547.9 51.904 Q 547.9 58.838 550.439 62.158 Q 552.916 65.397 556.973 65.477 A 10.47 10.47 0 0 0 557.178 65.479 Q 560.188 65.479 562.317 64.699 A 8.507 8.507 0 0 0 564.087 63.818 A 10.074 10.074 0 0 0 566.433 61.706 A 8.857 8.857 0 0 0 567.676 59.619 Z M 208.887 10.352 Q 208.887 9.717 209.277 9.229 A 127.644 127.644 0 0 1 209.488 8.966 Q 209.827 8.545 210.303 7.959 A 45.807 45.807 0 0 1 211.78 6.354 A 60.65 60.65 0 0 1 213.477 4.663 A 99.955 99.955 0 0 1 217.139 1.318 A 9.698 9.698 0 0 1 217.623 0.957 Q 218.388 0.426 218.839 0.393 A 0.797 0.797 0 0 1 218.896 0.391 A 1.157 1.157 0 0 1 219.247 0.454 Q 219.802 0.633 220.703 1.318 A 76.201 76.201 0 0 1 224.365 4.688 A 56.004 56.004 0 0 1 227.441 7.959 A 75.054 75.054 0 0 1 227.745 8.311 Q 228.179 8.819 228.49 9.203 A 5.069 5.069 0 0 1 228.491 9.204 Q 228.906 9.717 228.906 10.352 A 1.684 1.684 0 0 1 228.491 11.475 A 62.504 62.504 0 0 0 228.267 11.74 Q 228.018 12.036 227.698 12.423 A 200.29 200.29 0 0 0 227.393 12.793 A 50.817 50.817 0 0 1 225.964 14.362 A 69.282 69.282 0 0 1 224.316 16.04 Q 222.559 17.773 220.703 19.336 A 10.525 10.525 0 0 1 220.38 19.603 Q 219.922 19.965 219.629 20.093 A 2.238 2.238 0 0 1 219.296 20.21 Q 219.102 20.26 218.921 20.263 A 1.378 1.378 0 0 1 218.896 20.264 A 1.52 1.52 0 0 1 218.46 20.197 A 1.992 1.992 0 0 1 218.188 20.093 A 2.61 2.61 0 0 1 217.979 19.981 Q 217.635 19.78 217.067 19.355 A 22.367 22.367 0 0 1 217.041 19.336 Q 215.088 17.773 213.379 16.04 A 66.318 66.318 0 0 1 211.423 13.973 A 53.591 53.591 0 0 1 210.303 12.695 A 163.065 163.065 0 0 0 210.001 12.325 Q 209.705 11.963 209.474 11.685 A 51.92 51.92 0 0 0 209.277 11.45 Q 208.887 10.986 208.887 10.352 Z M 386.328 10.352 Q 386.328 9.717 386.719 9.229 A 127.644 127.644 0 0 1 386.929 8.966 Q 387.268 8.545 387.744 7.959 A 45.807 45.807 0 0 1 389.221 6.354 A 60.65 60.65 0 0 1 390.918 4.663 A 99.955 99.955 0 0 1 394.58 1.318 A 9.698 9.698 0 0 1 395.065 0.957 Q 395.83 0.426 396.28 0.393 A 0.797 0.797 0 0 1 396.338 0.391 A 1.157 1.157 0 0 1 396.688 0.454 Q 397.243 0.633 398.145 1.318 A 76.201 76.201 0 0 1 401.807 4.688 A 56.004 56.004 0 0 1 404.883 7.959 A 75.054 75.054 0 0 1 405.186 8.311 Q 405.62 8.819 405.931 9.203 A 5.069 5.069 0 0 1 405.933 9.204 Q 406.348 9.717 406.348 10.352 A 1.684 1.684 0 0 1 405.933 11.475 A 62.504 62.504 0 0 0 405.708 11.74 Q 405.46 12.036 405.14 12.423 A 200.29 200.29 0 0 0 404.834 12.793 A 50.817 50.817 0 0 1 403.406 14.362 A 69.282 69.282 0 0 1 401.758 16.04 Q 400 17.773 398.145 19.336 A 10.525 10.525 0 0 1 397.821 19.603 Q 397.363 19.965 397.07 20.093 A 2.238 2.238 0 0 1 396.738 20.21 Q 396.543 20.26 396.362 20.263 A 1.378 1.378 0 0 1 396.338 20.264 A 1.52 1.52 0 0 1 395.901 20.197 A 1.992 1.992 0 0 1 395.63 20.093 A 2.61 2.61 0 0 1 395.421 19.981 Q 395.076 19.78 394.508 19.355 A 22.367 22.367 0 0 1 394.482 19.336 Q 392.529 17.773 390.82 16.04 A 66.318 66.318 0 0 1 388.864 13.973 A 53.591 53.591 0 0 1 387.744 12.695 A 163.065 163.065 0 0 0 387.442 12.325 Q 387.146 11.963 386.915 11.685 A 51.92 51.92 0 0 0 386.719 11.45 Q 386.328 10.986 386.328 10.352 Z M 252.344 46.436 L 268.262 46.436 Q 270.752 46.436 270.752 44.141 A 9.134 9.134 0 0 0 270.25 41.063 A 8.014 8.014 0 0 0 268.579 38.306 A 6.854 6.854 0 0 0 265.5 36.407 Q 264.384 36.059 263.03 35.969 A 14.639 14.639 0 0 0 262.061 35.937 A 11.672 11.672 0 0 0 259.361 36.229 Q 257.444 36.685 256.117 37.852 A 6.962 6.962 0 0 0 255.103 38.965 Q 252.881 41.992 252.344 46.436 Z M 429.785 46.436 L 445.703 46.436 Q 448.193 46.436 448.193 44.141 A 9.134 9.134 0 0 0 447.692 41.063 A 8.014 8.014 0 0 0 446.021 38.306 A 6.854 6.854 0 0 0 442.941 36.407 Q 441.825 36.059 440.471 35.969 A 14.639 14.639 0 0 0 439.502 35.937 A 11.672 11.672 0 0 0 436.803 36.229 Q 434.885 36.685 433.559 37.852 A 6.962 6.962 0 0 0 432.544 38.965 Q 430.322 41.992 429.785 46.436 Z M 151.123 33.74 L 151.123 33.496 L 151.123 33.545 L 151.123 33.74 Z" vector-effect="non-scaling-stroke"/></g></svg>
